<?xml version="1.0" encoding="UTF-8"?>
<svg width="77px" height="78px" viewBox="0 0 77 78" version="1.1" xmlns="http://www.w3.org/2000/svg" xmlns:xlink="http://www.w3.org/1999/xlink">
    <!-- Generator: Sketch 53 (72520) - https://sketchapp.com -->
    <title>Group</title>
    <desc>Created with Sketch.</desc>
    <g id="Page-1" stroke="none" stroke-width="1" fill="none" fill-rule="evenodd">
        <g id="Group" transform="translate(0.883282, 0.783436)">
            <path d="M2.8956805e-14,70.7860623 C2.8956805e-14,73.8017902 2.50672195,76.2479939 5.59906566,76.2479939 L70.1682456,76.2479939 C73.2604874,76.2479939 75.7673113,73.8017902 75.7673113,70.7860623 L75.7673113,5.46193155 C75.7673113,2.4451848 73.2604874,0 70.1682456,0 L5.59906566,0 C2.50672195,0 0,2.4451848 0,5.46193155 L0,70.7860623 L2.8956805e-14,70.7860623 Z" id="path14" fill="#006699" fill-rule="nonzero" transform="translate(37.883656, 38.123997) scale(-1, 1) rotate(-180.000000) translate(-37.883656, -38.123997) "></path>
            <path d="M22.9674171,12.7995236 L22.9674171,47.2297632 L11.5234428,47.2297632 L11.5234428,12.7995236 L22.9674171,12.7995236 Z M17.245379,51.930631 C21.2361243,51.930631 23.7200246,54.5744871 23.7200246,57.878543 C23.6456502,61.2569734 21.2361243,63.8274739 17.3210778,63.8274739 C13.4064388,63.8274739 10.8469417,61.2569734 10.8469417,57.878543 C10.8469417,54.5744871 13.3303325,51.930631 17.1708008,51.930631 L17.2451752,51.930631 L17.245379,51.930631 Z" id="path28" fill="#FFFFFF" transform="translate(17.283483, 38.313499) scale(-1, 1) rotate(-180.000000) translate(-17.283483, -38.313499) "></path>
            <path d="M29.2997325,28.5893044 L40.7436049,28.5893044 L40.7436049,47.8166076 C40.7436049,48.8456229 40.8179793,49.8736193 41.1201634,50.6092124 C41.9474509,52.6652053 43.830447,54.7945537 46.9918671,54.7945537 C51.1328895,54.7945537 52.7894003,51.6372088 52.7894003,47.0086778 L52.7894003,28.5893044 L64.2323557,28.5893044 L64.2323557,48.3311152 C64.2323557,58.9065395 58.5865259,63.8274739 51.0572925,63.8274739 C44.8836084,63.8274739 42.1733248,60.3767068 40.6674985,58.026273 L40.7439106,58.026273 L40.7439106,63.0195441 L29.3000382,63.0195441 C29.4502133,59.7888437 29.2997325,28.5893044 29.2997325,28.5893044 L29.2997325,28.5893044 Z" id="path30" fill="#FFFFFF" transform="translate(46.766044, 46.208389) scale(-1, 1) rotate(-180.000000) translate(-46.766044, -46.208389) "></path>
        </g>
    </g>
</svg>